<?xml version="1.0" standalone="no"?><!DOCTYPE svg PUBLIC "-//W3C//DTD SVG 1.1//EN" "http://www.w3.org/Graphics/SVG/1.1/DTD/svg11.dtd"><svg t="1686648285742" class="icon" viewBox="0 0 1024 1024" version="1.1" xmlns="http://www.w3.org/2000/svg" p-id="2067" xmlns:xlink="http://www.w3.org/1999/xlink" width="200" height="200"><path d="M21.333333 0v1024" opacity=".3" p-id="2068"></path><path d="M42.666667 0v1024" p-id="2069"></path><path d="M64 0v1024" opacity=".3" p-id="2070"></path><path d="M85.333333 0v1024" p-id="2071"></path><path d="M106.666667 0v1024" opacity=".3" p-id="2072"></path><path d="M128 0v1024" p-id="2073"></path><path d="M149.333333 0v1024" opacity=".3" p-id="2074"></path><path d="M170.666667 0v1024" p-id="2075"></path><path d="M192 0v1024" opacity=".3" p-id="2076"></path><path d="M213.333333 0v1024" p-id="2077"></path><path d="M234.666667 0v1024" opacity=".3" p-id="2078"></path><path d="M256 0v1024" p-id="2079"></path><path d="M277.333333 0v1024" opacity=".3" p-id="2080"></path><path d="M298.666667 0v1024" p-id="2081"></path><path d="M320 0v1024" opacity=".3" p-id="2082"></path><path d="M341.333333 0v1024" p-id="2083"></path><path d="M362.666667 0v1024" opacity=".3" p-id="2084"></path><path d="M384 0v1024" p-id="2085"></path><path d="M405.333333 0v1024" opacity=".3" p-id="2086"></path><path d="M426.666667 0v1024" p-id="2087"></path><path d="M448 0v1024" opacity=".3" p-id="2088"></path><path d="M469.333333 0v1024" p-id="2089"></path><path d="M490.666667 0v1024" opacity=".3" p-id="2090"></path><path d="M512 0v1024" p-id="2091"></path><path d="M533.333333 0v1024" opacity=".3" p-id="2092"></path><path d="M554.666667 0v1024" p-id="2093"></path><path d="M576 0v1024" opacity=".3" p-id="2094"></path><path d="M597.333333 0v1024" p-id="2095"></path><path d="M618.666667 0v1024" opacity=".3" p-id="2096"></path><path d="M640 0v1024" p-id="2097"></path><path d="M661.333333 0v1024" opacity=".3" p-id="2098"></path><path d="M682.666667 0v1024" p-id="2099"></path><path d="M704 0v1024" opacity=".3" p-id="2100"></path><path d="M725.333333 0v1024" p-id="2101"></path><path d="M746.666667 0v1024" opacity=".3" p-id="2102"></path><path d="M768 0v1024" p-id="2103"></path><path d="M789.333333 0v1024" opacity=".3" p-id="2104"></path><path d="M810.666667 0v1024" p-id="2105"></path><path d="M832 0v1024" opacity=".3" p-id="2106"></path><path d="M853.333333 0v1024" p-id="2107"></path><path d="M874.666667 0v1024" opacity=".3" p-id="2108"></path><path d="M896 0v1024" p-id="2109"></path><path d="M917.333333 0v1024" opacity=".3" p-id="2110"></path><path d="M938.666667 0v1024" p-id="2111"></path><path d="M960 0v1024" opacity=".3" p-id="2112"></path><path d="M981.333333 0v1024" p-id="2113"></path><path d="M1002.666667 0v1024M0 21.333333h1024" opacity=".3" p-id="2114"></path><path d="M0 42.666667h1024" p-id="2115"></path><path d="M0 64h1024" opacity=".3" p-id="2116"></path><path d="M0 85.333333h1024" p-id="2117"></path><path d="M0 106.666667h1024" opacity=".3" p-id="2118"></path><path d="M0 128h1024" p-id="2119"></path><path d="M0 149.333333h1024" opacity=".3" p-id="2120"></path><path d="M0 170.666667h1024" p-id="2121"></path><path d="M0 192h1024" opacity=".3" p-id="2122"></path><path d="M0 213.333333h1024" p-id="2123"></path><path d="M0 234.666667h1024" opacity=".3" p-id="2124"></path><path d="M0 256h1024" p-id="2125"></path><path d="M0 277.333333h1024" opacity=".3" p-id="2126"></path><path d="M0 298.666667h1024" p-id="2127"></path><path d="M0 320h1024" opacity=".3" p-id="2128"></path><path d="M0 341.333333h1024" p-id="2129"></path><path d="M0 362.666667h1024" opacity=".3" p-id="2130"></path><path d="M0 384h1024" p-id="2131"></path><path d="M0 405.333333h1024" opacity=".3" p-id="2132"></path><path d="M0 426.666667h1024" p-id="2133"></path><path d="M0 448h1024" opacity=".3" p-id="2134"></path><path d="M0 469.333333h1024" p-id="2135"></path><path d="M0 490.666667h1024" opacity=".3" p-id="2136"></path><path d="M0 512h1024" p-id="2137"></path><path d="M0 533.333333h1024" opacity=".3" p-id="2138"></path><path d="M0 554.666667h1024" p-id="2139"></path><path d="M0 576h1024" opacity=".3" p-id="2140"></path><path d="M0 597.333333h1024" p-id="2141"></path><path d="M0 618.666667h1024" opacity=".3" p-id="2142"></path><path d="M0 640h1024" p-id="2143"></path><path d="M0 661.333333h1024" opacity=".3" p-id="2144"></path><path d="M0 682.666667h1024" p-id="2145"></path><path d="M0 704h1024" opacity=".3" p-id="2146"></path><path d="M0 725.333333h1024" p-id="2147"></path><path d="M0 746.666667h1024" opacity=".3" p-id="2148"></path><path d="M0 768h1024" p-id="2149"></path><path d="M0 789.333333h1024" opacity=".3" p-id="2150"></path><path d="M0 810.666667h1024" p-id="2151"></path><path d="M0 832h1024" opacity=".3" p-id="2152"></path><path d="M0 853.333333h1024" p-id="2153"></path><path d="M0 874.666667h1024" opacity=".3" p-id="2154"></path><path d="M0 896h1024" p-id="2155"></path><path d="M0 917.333333h1024" opacity=".3" p-id="2156"></path><path d="M0 938.666667h1024" p-id="2157"></path><path d="M0 960h1024" opacity=".3" p-id="2158"></path><path d="M0 981.333333h1024" p-id="2159"></path><path d="M0 1002.666667h1024" opacity=".3" p-id="2160"></path><path d="M366 698l196-196-196-196 60-60 256 256-256 256z" p-id="2161"></path></svg>